<svg version="1.1" xmlns="http://www.w3.org/2000/svg" xmlns:xlink="http://www.w3.org/1999/xlink" x="0px" y="0px" viewBox="0 0 1000 1000" enable-background="new 0 0 1000 1000" xml:space="preserve">
<g><g transform="translate(0.000000,511.000000) scale(0.100000,-0.100000)"><path d="M4804.5,4970.2c-48.8-25.5-97.6-67.9-112.5-97.6c-17-36.1-23.3-320.4-23.3-944.2c0-738.4,4.2-901.8,31.8-950.6c95.5-186.7,515.6-180.4,600.5,8.5c36.1,76.4,36.1,1809.9,0,1886.3C5243.7,4999.9,4972.1,5053,4804.5,4970.2z"></path><path d="M1751.2,3625c-186.7-59.4-269.5-125.2-348-282.2c-199.4-396.8-146.4-1262.5,114.6-1918.1l74.3-182.5l-63.7-171.9c-76.4-212.2-157-522-205.8-799.9C1278,3.1,1271.7-769.2,1312-1023.8c91.2-551.7,292.8-1088.5,564.4-1500.1c70-106.1,76.4-129.4,97.6-377.7c48.8-566.5,140-1150,235.5-1510.7c74.3-277.9,201.6-358.6,579.3-373.4c265.2-10.6,426.5,17,577.1,99.7c167.6,91.2,191,142.1,205.8,481.6c8.5,159.1,19.1,297.1,25.5,301.3c6.4,6.4,108.2-19.1,227-53c297-89.1,371.3-106.1,659.9-144.3c318.3-40.3,708.7-40.3,1027,0c288.6,38.2,362.8,55.2,659.9,144.3c118.8,34,220.7,59.4,227,53c6.4-4.2,17-142.2,25.5-301.3c10.6-248.2,19.1-301.3,57.3-358.6c97.6-144.3,337.4-227,662-227c379.8,0,564.4,97.6,630.2,333.1c93.4,337.4,186.7,906,239.8,1459.8l34,360.7l95.5,148.5c403.1,628,602.6,1404.6,572.9,2227.9c-17,483.8-99.7,923-248.3,1330.4l-63.7,171.9l74.3,184.6c76.4,197.3,159.1,505,203.7,763.8c40.3,231.3,34,740.5-8.5,918.7c-101.8,415.9-284.3,545.3-759.6,545.3c-358.6,0-855.1-106.1-1271-271.6l-157-61.5l-97.6,40.3c-146.4,63.7-309.8,120.9-513.5,176.1l-182.5,48.8l-8.5-373.4c-6.4-360.7-8.5-381.9-65.8-505c-72.1-157-199.5-286.4-343.7-352.2c-150.7-67.9-401-67.9-555.9,2.1c-135.8,59.4-267.3,197.3-341.6,358.6c-53,114.6-57.3,142.2-63.7,488c-6.4,335.2-10.6,365-46.7,365c-61.5,0-401-104-585.6-178.2l-171.9-70l-157,61.5c-233.4,91.2-619.6,199.4-844.5,237.6C2271,3661.1,1872.1,3663.2,1751.2,3625z M2599.9,2939.7c93.4-17,176.1-36.1,184.6-40.3c8.5-6.4-112.5-135.8-267.4-290.7c-154.9-152.8-326.8-343.7-384-422.2c-57.3-80.6-110.3-144.3-118.8-144.3c-27.6,0-72.1,352.2-72.1,577.1c0,210.1,4.2,229.1,50.9,280.1C2090.7,3003.3,2232.9,3011.8,2599.9,2939.7z M7957.5,2935.4c95.5-67.9,110.3-120.9,97.6-362.8c-8.5-235.5-50.9-530.4-76.4-530.4c-6.4,0-59.4,63.7-116.7,144.3c-57.3,78.5-229.1,267.3-386.2,422.2c-154.9,154.9-273.7,284.3-265.2,288.6c14.9,10.6,307.7,70,418,87C7738.9,2999.1,7902.3,2975.8,7957.5,2935.4z M3760.5,919.7C3940.9,805.2,4030,516.6,3962.1,279c-59.4-201.6-237.6-358.6-407.4-358.6c-97.6,0-229.2,70-305.5,161.3c-269.5,326.8-76.4,899.6,305.5,899.6C3637.5,981.3,3686.3,966.4,3760.5,919.7z M6646.2,919.7c235.5-148.5,297.1-564.4,120.9-808.4c-165.5-227-415.9-250.4-606.8-50.9c-303.4,314-118.8,920.9,280.1,920.9C6523.1,981.3,6571.9,966.4,6646.2,919.7z M5275.5-760.7c468.9-65.8,814.8-297.1,999.4-672.6c72.1-144.3,80.6-176.1,80.6-331c0-205.8-33.9-307.7-133.7-420.1c-97.6-108.2-237.7-178.2-445.6-224.9c-133.7-29.7-275.8-36.1-778.7-36.1c-666.2,0-840.2,21.2-1050.3,127.3c-322.5,165.5-407.4,545.3-205.8,931.5C3993.9-909.2,4590.2-665.3,5275.5-760.7z"></path><path d="M4163.7-1473.6c-224.9-110.3-229.2-464.7-4.2-579.2c227-114.6,488,38.2,488,286.4C4647.4-1524.6,4384.3-1365.4,4163.7-1473.6z"></path><path d="M5513.1-1482.1c-216.4-114.6-214.3-458.3,4.2-570.7c163.4-82.8,354.3-29.7,443.4,127.3C6122.1-1637,5808.1-1325.1,5513.1-1482.1z"></path></g></g></svg>